<?xml version="1.0"?>

<svg width="100%" height="100%" viewBox="0 0 3840 2160" version="1.1" xmlns="http://www.w3.org/2000/svg" xmlns:xlink="http://www.w3.org/1999/xlink" xml:space="preserve" xmlns:serif="http://www.serif.com/" style="fill-rule:evenodd;clip-rule:evenodd;stroke-linejoin:round;stroke-miterlimit:2;">
    <g transform="matrix(2,0,0,2,1586.759,1847.899)">
        <path d="M0,-23.717L5.624,-23.717L11.858,-13.689L18.092,-23.717L23.717,-23.717L23.717,0L18.531,0L18.531,-15.485L11.858,-5.354L11.723,-5.354L5.116,-15.381L5.116,0L0,0L0,-23.717Z" style="fill:rgb(4,74,116);fill-rule:nonzero;"></path>
    </g>
    <g transform="matrix(2,0,0,2,1651.6034,1821.537)">
        <path d="M0,3.017L0,-10.536L5.217,-10.536L5.217,2.881C5.217,6.742 7.149,8.743 10.334,8.743C13.519,8.743 15.448,6.811 15.448,3.049L15.448,-10.536L20.668,-10.536L20.668,2.847C20.668,10.03 16.634,13.553 10.265,13.553C3.895,13.553 0,9.996 0,3.017" style="fill:rgb(4,74,116);fill-rule:nonzero;"></path>
    </g>
    <g transform="matrix(2,0,0,2,1710.3498,1847.899)">
        <path d="M0,-23.717L5.217,-23.717L5.217,-13.349L14.772,-23.717L21.176,-23.717L11.486,-13.655L21.58,0L15.314,0L7.961,-10.097L5.217,-7.251L5.217,0L0,0L0,-23.717Z" style="fill:rgb(4,74,116);fill-rule:nonzero;"></path>
    </g>
    <g transform="matrix(2,0,0,2,1765.8496,1821.537)">
        <path d="M0,3.017L0,-10.536L5.217,-10.536L5.217,2.881C5.217,6.742 7.149,8.743 10.334,8.743C13.518,8.743 15.448,6.811 15.448,3.049L15.448,-10.536L20.668,-10.536L20.668,2.847C20.668,10.03 16.634,13.553 10.265,13.553C3.895,13.553 0,9.996 0,3.017" style="fill:rgb(4,74,116);fill-rule:nonzero;"></path>
    </g>
    <g transform="matrix(2,0,0,2,1848.4458,1807.378)">
        <path d="M0,16.804L3.084,13.111C5.22,14.872 7.455,15.99 10.166,15.99C12.3,15.99 13.588,15.144 13.588,13.755L13.588,13.688C13.588,12.366 12.773,11.688 8.809,10.671C4.033,9.453 0.95,8.13 0.95,3.421L0.95,3.355C0.95,-0.95 4.406,-3.794 9.251,-3.794C12.707,-3.794 15.655,-2.712 18.06,-0.78L15.349,3.15C13.25,1.694 11.182,0.811 9.182,0.811C7.184,0.811 6.133,1.726 6.133,2.878L6.133,2.948C6.133,4.507 7.149,5.015 11.249,6.063C16.062,7.316 18.77,9.046 18.77,13.18L18.77,13.247C18.77,17.956 15.179,20.598 10.065,20.598C6.473,20.598 2.847,19.345 0,16.804" style="fill:rgb(4,74,116);fill-rule:nonzero;"></path>
    </g>
    <g transform="matrix(2,0,0,2,1901.8438,1847.899)">
        <path d="M0,-23.717L5.217,-23.717L5.217,-14.333L14.838,-14.333L14.838,-23.717L20.056,-23.717L20.056,0L14.838,0L14.838,-9.52L5.217,-9.52L5.217,0L0,0L0,-23.717Z" style="fill:rgb(4,74,116);fill-rule:nonzero;"></path>
    </g>
    <g transform="matrix(2,0,0,2,1997.5242,1824.0488)">
        <path d="M0,0.133L0,0.066C0,-3.999 -2.982,-7.389 -7.184,-7.389C-11.385,-7.389 -14.298,-4.068 -14.298,-0L-14.298,0.066C-14.298,4.132 -11.316,7.521 -7.115,7.521C-2.913,7.521 0,4.201 0,0.133M-19.752,0.133L-19.752,0.066C-19.752,-6.676 -14.434,-12.199 -7.115,-12.199C0.202,-12.199 5.454,-6.745 5.454,-0L5.454,0.066C5.454,6.808 0.136,12.332 -7.184,12.332C-14.5,12.332 -19.752,6.877 -19.752,0.133" style="fill:rgb(4,74,116);fill-rule:nonzero;"></path>
    </g>
    <g transform="matrix(2,0,0,2,2024.4924,1847.899)">
        <path d="M0,-23.717L5.217,-23.717L5.217,-13.349L14.772,-23.717L21.176,-23.717L11.486,-13.655L21.58,0L15.314,0L7.961,-10.097L5.217,-7.251L5.217,0L0,0L0,-23.717Z" style="fill:rgb(4,74,116);fill-rule:nonzero;"></path>
    </g>
    <g transform="matrix(2,0,0,2,2079.9922,1821.537)">
        <path d="M0,3.017L0,-10.536L5.217,-10.536L5.217,2.881C5.217,6.742 7.149,8.743 10.334,8.743C13.518,8.743 15.448,6.811 15.448,3.049L15.448,-10.536L20.667,-10.536L20.667,2.847C20.667,10.03 16.634,13.553 10.265,13.553C3.895,13.553 0,9.996 0,3.017" style="fill:rgb(4,74,116);fill-rule:nonzero;"></path>
    </g>
    <g transform="matrix(2,0,0,2,2149.1734,1838.4796)">
        <path d="M0,-14.298L0,-0L4.031,-0C8.301,-0 11.18,-2.879 11.18,-7.082L11.18,-7.149C11.18,-11.35 8.301,-14.298 4.031,-14.298L0,-14.298ZM-5.217,-19.007L4.031,-19.007C11.486,-19.007 16.634,-13.891 16.634,-7.216L16.634,-7.149C16.634,-0.474 11.486,4.709 4.031,4.709L-5.217,4.709L-5.217,-19.007Z" style="fill:rgb(4,74,116);fill-rule:nonzero;"></path>
    </g>
    <g transform="matrix(2,0,0,2,2235.904,1824.0488)">
        <path d="M0,0.133L0,0.066C0,-3.999 -2.983,-7.389 -7.184,-7.389C-11.385,-7.389 -14.298,-4.068 -14.298,-0L-14.298,0.066C-14.298,4.132 -11.316,7.521 -7.115,7.521C-2.913,7.521 0,4.201 0,0.133M-19.752,0.133L-19.752,0.066C-19.752,-6.676 -14.434,-12.199 -7.115,-12.199C0.202,-12.199 5.454,-6.745 5.454,-0L5.454,0.066C5.454,6.808 0.136,12.332 -7.184,12.332C-14.5,12.332 -19.752,6.877 -19.752,0.133" style="fill:rgb(4,74,116);fill-rule:nonzero;"></path>
    </g>
    <g transform="matrix(2,0,0,2,1984.1274,1045.2372)">
        <path d="M0,-11.887L-25.767,-11.887C-25.87,-11.887 -25.959,-11.89 -26.035,-11.895C-27.465,-11.984 -28.61,-13.129 -28.7,-14.556C-28.705,-14.634 -28.708,-14.724 -28.708,-14.828L-28.708,-38.634C-28.708,-39.159 -29.133,-39.584 -29.658,-39.584L-39.034,-39.584C-39.558,-39.584 -39.983,-39.159 -39.983,-38.634L-39.983,-14.828C-39.983,-14.724 -39.986,-14.635 -39.991,-14.558C-40.081,-13.129 -41.223,-11.985 -42.654,-11.896C-42.732,-11.89 -42.821,-11.887 -42.924,-11.887L-67.343,-11.887C-67.867,-11.887 -68.292,-11.462 -68.292,-10.938L-68.292,-1.439C-68.292,-0.915 -67.867,-0.49 -67.343,-0.49L-42.924,-0.49C-42.82,-0.49 -42.731,-0.486 -42.654,-0.482C-41.226,-0.392 -40.081,0.752 -39.991,2.179C-39.986,2.257 -39.983,2.347 -39.983,2.452L-39.983,26.748C-39.983,27.272 -39.558,27.697 -39.034,27.697L-29.658,27.697C-29.133,27.697 -28.708,27.272 -28.708,26.748L-28.708,2.452C-28.708,2.348 -28.705,2.258 -28.7,2.182C-28.61,0.753 -27.469,-0.392 -26.038,-0.481C-25.961,-0.486 -25.871,-0.49 -25.767,-0.49L0,-0.49C0.524,-0.49 0.949,-0.915 0.949,-1.439L0.949,-10.938C0.949,-11.462 0.524,-11.887 0,-11.887" style="fill:rgb(4,74,116);fill-rule:nonzero;"></path>
    </g>
    <g transform="matrix(2,0,0,2,1991.9084,981.334)">
        <path d="M0,59.649C0,59.752 -0.003,59.842 -0.008,59.918C-0.098,61.347 -1.24,62.492 -2.671,62.581C-2.748,62.587 -2.837,62.59 -2.941,62.59L-72.183,62.59C-72.286,62.59 -72.376,62.587 -72.452,62.582C-73.881,62.492 -75.026,61.35 -75.116,59.919C-75.121,59.842 -75.124,59.752 -75.124,59.649L-75.124,-7.632C-75.124,-7.735 -75.121,-7.822 -75.116,-7.9C-75.027,-9.33 -73.883,-10.475 -72.455,-10.565C-72.376,-10.57 -72.287,-10.573 -72.183,-10.573L-2.941,-10.573C-2.838,-10.573 -2.748,-10.57 -2.672,-10.565C-1.242,-10.475 -0.097,-9.332 -0.009,-7.901C-0.003,-7.824 0,-7.735 0,-7.632L0,59.649ZM11.52,44.82L11.52,11.609C11.52,6.07 11.643,0.132 11.887,-6.039C12.094,-11.262 12.332,-15.786 12.594,-19.483C12.653,-20.315 12.346,-21.128 11.752,-21.713C11.216,-22.241 10.507,-22.532 9.755,-22.532C9.67,-22.532 9.586,-22.528 9.509,-22.521C1.532,-21.83 -8.017,-21.48 -18.873,-21.48L-49.388,-21.48C-62.62,-21.48 -74.267,-21.837 -84.004,-22.542C-84.072,-22.547 -84.139,-22.549 -84.206,-22.549C-84.969,-22.549 -85.711,-22.236 -86.243,-21.691C-86.83,-21.09 -87.121,-20.266 -87.04,-19.429C-86.452,-13.312 -86.154,-5.344 -86.154,4.256L-86.154,55.85C-86.154,65.512 -86.443,73.475 -87.012,79.502C-87.095,80.245 -86.934,80.827 -86.521,81.278C-86.104,81.738 -85.475,81.992 -84.56,82.076C-83.822,82.157 -82.544,82.198 -80.761,82.198C-79.271,82.198 -78.138,82.16 -77.35,82.08L-77.286,82.073C-75.405,81.944 -75.124,80.33 -75.124,79.379L-75.124,77.051C-75.124,76.948 -75.121,76.859 -75.116,76.783C-75.027,75.353 -73.884,74.207 -72.451,74.118C-72.374,74.113 -72.286,74.109 -72.183,74.109L-2.941,74.109C-2.839,74.109 -2.752,74.112 -2.672,74.119C-1.242,74.207 -0.097,75.35 -0.009,76.782C-0.003,76.859 0,76.947 0,77.051L0,77.909C0,78.663 -0.036,79.254 -0.108,79.667C-0.118,79.727 -0.123,79.787 -0.122,79.847C-0.096,81.249 0.611,81.981 2.009,82.081C2.758,82.159 4.062,82.198 5.883,82.198C7.781,82.198 9.165,82.159 10.03,82.079C10.053,82.077 10.097,82.073 10.097,82.073C10.921,82.027 11.52,81.779 11.927,81.316C12.393,80.788 12.586,79.967 12.5,78.89C11.85,68.99 11.52,57.527 11.52,44.82" style="fill:rgb(4,74,116);fill-rule:nonzero;"></path>
    </g>
    <g transform="matrix(2,0,0,2,1817.4836,689.1194)">
        <path d="M0,15.446C0.143,15.446 0.292,15.44 0.456,15.426C3.91,15.196 8.396,15.058 12.455,15.058L22.749,15.058C23.561,15.058 24.201,15.244 24.649,15.611C25.109,15.988 25.322,16.464 25.322,17.062C25.306,17.364 25.114,17.974 24.832,18.613C23.655,21.259 21.797,25.282 19.268,29.655C19.116,29.919 19.099,30.241 19.224,30.519C19.349,30.797 19.601,30.999 19.9,31.06C22.62,31.616 25.093,32.492 27.46,33.737C27.6,33.811 27.751,33.846 27.9,33.846C28.238,33.846 28.566,33.665 28.738,33.347L28.839,33.162C30.426,30.277 35.877,20.156 39.401,11.054C39.411,11.027 39.423,11.001 39.434,10.979C39.666,10.504 39.784,10.063 39.784,9.666C39.784,8.784 39.261,7.928 38.229,7.123C38.205,7.103 38.179,7.085 38.152,7.069L35.862,5.622C35.305,5.225 34.66,4.94 33.945,4.774C33.916,4.767 33.887,4.762 33.856,4.758C33.487,4.708 33.096,4.683 32.695,4.683C32.488,4.683 32.277,4.69 32.063,4.703C31.432,4.744 30.896,4.764 30.47,4.764L27.651,4.764C26.767,4.764 26.026,4.489 25.506,3.967C24.97,3.434 24.71,2.732 24.71,1.823L24.71,-6.758C24.71,-9.604 25.336,-12.299 26.548,-14.723C26.873,-15.293 27.038,-15.83 27.038,-16.316C27.038,-16.959 26.699,-17.393 26.001,-17.642C25.961,-17.657 25.919,-17.668 25.877,-17.677C23.601,-18.157 20.405,-18.4 16.376,-18.4L14.895,-18.4C14.79,-18.4 14.686,-18.383 14.586,-18.348C13.435,-17.953 13.435,-16.354 13.435,-15.83L13.435,-15.337C13.598,-11.573 13.68,-8.604 13.68,-6.513L13.68,1.823C13.68,2.729 13.42,3.431 12.884,3.967C12.347,4.503 11.646,4.764 10.739,4.764L5.235,4.764L-0.157,4.642C-1.76,4.642 -2.649,5.429 -2.731,6.97L-2.731,12.81C-2.731,12.839 -2.729,12.869 -2.727,12.898C-2.566,14.612 -1.674,15.446 0,15.446" style="fill:rgb(4,74,116);fill-rule:nonzero;"></path>
    </g>
    <g transform="matrix(2,0,0,2,2006.1868,749.6872)">
        <path d="M0,18.539C0,19.446 -0.261,20.148 -0.797,20.684C-1.318,21.205 -2.059,21.48 -2.941,21.48L-12.378,21.48C-13.261,21.48 -14.002,21.206 -14.522,20.684C-15.058,20.15 -15.319,19.448 -15.319,18.539L-15.319,7.936C-15.319,7.413 -14.893,6.987 -14.37,6.987L-3.89,6.987C-3.366,6.987 -2.941,6.562 -2.941,6.038L-2.941,-1.745C-2.941,-2.27 -3.366,-2.695 -3.89,-2.695L-14.37,-2.695C-14.893,-2.695 -15.319,-3.12 -15.319,-3.644L-15.319,-14.246C-15.319,-15.153 -15.058,-15.855 -14.523,-16.391C-13.986,-16.927 -13.285,-17.187 -12.378,-17.187L-2.941,-17.187C-2.036,-17.187 -1.334,-16.926 -0.797,-16.391C-0.261,-15.853 0,-15.151 0,-14.246L0,18.539ZM-26.103,-3.644C-26.103,-3.12 -26.529,-2.695 -27.053,-2.695L-36.797,-2.695C-37.321,-2.695 -37.746,-2.27 -37.746,-1.745L-37.746,6.038C-37.746,6.562 -37.321,6.987 -36.797,6.987L-27.053,6.987C-26.529,6.987 -26.103,7.413 -26.103,7.936L-26.103,18.539C-26.103,19.446 -26.364,20.148 -26.9,20.684C-27.421,21.205 -28.163,21.48 -29.045,21.48L-37.746,21.48C-38.629,21.48 -39.37,21.206 -39.89,20.684C-40.426,20.15 -40.687,19.448 -40.687,18.539L-40.687,-14.246C-40.687,-15.153 -40.426,-15.855 -39.891,-16.391C-39.354,-16.927 -38.653,-17.187 -37.746,-17.187L-29.045,-17.187C-28.14,-17.187 -27.437,-16.926 -26.9,-16.391C-26.364,-15.853 -26.103,-15.151 -26.103,-14.246L-26.103,-3.644ZM11.642,33.368C10.992,25.169 10.662,15.686 10.662,5.181L10.662,-11.918C10.662,-17.017 10.812,-21.337 11.107,-24.757C11.179,-25.592 10.882,-26.412 10.29,-27.008C9.759,-27.542 9.023,-27.849 8.271,-27.849C8.197,-27.849 8.123,-27.846 8.044,-27.84C5.063,-27.602 1.573,-27.481 -2.328,-27.481L-12.378,-27.481C-13.261,-27.481 -14.002,-27.756 -14.522,-28.279C-15.058,-28.812 -15.319,-29.514 -15.319,-30.423L-15.319,-32.192C-15.319,-38.336 -14.696,-42.614 -13.481,-44.884C-13.155,-45.455 -12.99,-46.033 -12.99,-46.6C-12.99,-47.157 -13.342,-47.562 -14.035,-47.806C-14.071,-47.819 -14.109,-47.829 -14.147,-47.838C-16.339,-48.318 -19.455,-48.561 -23.407,-48.561L-24.889,-48.561C-24.994,-48.561 -25.098,-48.544 -25.198,-48.51C-26.349,-48.114 -26.349,-46.515 -26.349,-45.992L-26.349,-45.497C-26.188,-42.116 -26.103,-37.727 -26.103,-32.805L-26.103,-30.423C-26.103,-29.516 -26.364,-28.814 -26.9,-28.278C-27.437,-27.742 -28.138,-27.481 -29.045,-27.481L-38.604,-27.481C-42.237,-27.481 -45.525,-27.6 -48.384,-27.835C-48.461,-27.841 -48.537,-27.844 -48.613,-27.844C-49.371,-27.844 -50.085,-27.549 -50.622,-27.013C-51.215,-26.424 -51.517,-25.607 -51.451,-24.774C-51.152,-20.959 -50.981,-15.669 -50.981,-10.26L-50.981,21.113C-50.981,26.793 -51.146,31.374 -51.471,34.716C-51.574,35.63 -51.26,36.188 -50.982,36.492C-50.579,36.937 -49.994,37.157 -49.197,37.167C-49.164,37.167 -49.13,37.169 -49.091,37.173C-48.435,37.251 -47.41,37.289 -45.957,37.289C-43.752,37.289 -42.227,37.236 -41.423,37.132C-40.932,37.068 -40.572,36.638 -40.597,36.144L-40.687,34.348C-40.687,32.641 -39.697,31.775 -37.746,31.775L-29.045,31.775C-28.14,31.775 -27.437,32.036 -26.9,32.571C-26.364,33.109 -26.103,33.811 -26.103,34.716L-26.103,49.575C-26.103,55.415 -26.268,60.239 -26.594,63.915C-26.681,64.955 -26.499,65.741 -26.054,66.249C-25.66,66.699 -25.065,66.934 -24.234,66.982C-23.566,67.06 -22.381,67.1 -20.711,67.1C-19.09,67.1 -17.972,67.06 -17.249,66.977C-16.417,66.933 -15.813,66.685 -15.402,66.219C-14.935,65.69 -14.742,64.876 -14.829,63.792C-15.154,60.138 -15.319,55.355 -15.319,49.575L-15.319,34.716C-15.319,33.808 -15.059,33.107 -14.523,32.572C-13.987,32.035 -13.285,31.775 -12.378,31.775L-2.941,31.775C-2.049,31.775 -1.327,31.981 -0.797,32.388C-0.268,32.795 0,33.331 0,33.981L0,35.007C0,35.053 -0.004,35.099 -0.01,35.143C-0.02,35.213 -0.024,35.267 -0.026,35.307C-0.047,35.59 0.06,35.877 0.28,36.078C0.582,36.354 1.112,36.512 1.838,36.554C2.481,36.635 3.718,36.677 5.515,36.677C7.196,36.677 8.382,36.636 9.023,36.559L9.102,36.552C9.979,36.509 10.64,36.244 11.063,35.765C11.532,35.235 11.727,34.428 11.642,33.368" style="fill:rgb(4,74,116);fill-rule:nonzero;"></path>
    </g>
    <g transform="matrix(2,0,0,2,1840.496,883.8866)">
        <path d="M0,-64.231C-8.879,-64.231 -15.386,-61.145 -19.281,-58.556C-26.399,-53.825 -30.585,-47.042 -30.204,-40.855C-29.95,-36.738 -27.658,-33.304 -23.903,-31.426L-23.742,-31.349C-22.068,-30.576 -20.239,-30.184 -18.308,-30.184C-10.948,-30.184 -6.3,-34.832 -1.38,-39.752C-0.729,-40.403 -0.07,-40.733 0.581,-40.733C1.638,-40.733 2.174,-39.908 2.174,-38.281L2.174,-20.768C2.174,-12.968 1.893,-8.308 1.439,-3.308C1.349,-2.204 1.54,-1.376 2.007,-0.844C2.403,-0.397 2.993,-0.159 3.768,-0.122C4.592,-0.041 5.911,0 7.689,0C9.32,0 10.499,-0.041 11.244,-0.122C12.788,-0.204 13.571,-1.152 13.571,-2.94L13.571,-3.268C13.571,-3.294 13.57,-3.32 13.568,-3.347C13.326,-6.267 13.204,-9.594 13.204,-13.235L13.204,-43.806C13.204,-44.025 13.219,-44.239 13.25,-44.441C13.293,-44.721 13.209,-45.005 13.021,-45.216C12.818,-45.444 12.634,-45.639 12.458,-45.815C9.458,-48.815 4.568,-50.754 0,-50.754C-1.816,-50.754 -3.606,-50.535 -5.32,-50.103C-5.494,-50.06 -5.651,-49.968 -5.775,-49.839C-6.362,-49.225 -6.97,-48.616 -7.579,-48.032C-9.586,-46.112 -11.488,-44.608 -13.227,-43.566C-13.949,-43.141 -14.523,-42.844 -15.082,-42.607C-15.298,-42.516 -15.53,-42.47 -15.77,-42.47C-16.315,-42.47 -16.865,-42.72 -17.211,-43.131C-17.751,-43.758 -17.817,-44.733 -17.339,-45.437C-16.538,-46.749 -14.694,-48.746 -12.976,-49.83C-10.857,-51.238 -6.354,-53.601 0,-53.601C5.366,-53.601 10.911,-51.389 14.471,-47.829C17.858,-44.442 21.409,-37.653 21.694,-36.654C21.922,-36.014 22.334,-35.658 22.955,-35.566C23.001,-35.559 23.048,-35.555 23.095,-35.555C23.691,-35.555 24.428,-35.951 25.288,-36.729C25.31,-36.749 25.331,-36.771 25.351,-36.793L29.61,-41.453C30.226,-42.097 30.574,-42.687 30.674,-43.256C30.809,-44.022 30.572,-44.544 29.95,-45.5C22.423,-57.064 14.788,-64.231 0,-64.231" style="fill:rgb(4,74,116);fill-rule:nonzero;"></path>
    </g>
    <g transform="matrix(2,0,0,2,2448.4402,1661.5718)">
        <path d="M0,22.913C-0.156,21.265 -1.015,20.465 -2.624,20.465C-2.763,20.465 -2.906,20.471 -3.059,20.484C-9.624,20.953 -16.283,21.19 -22.852,21.19L-42.645,21.19C-43.495,21.19 -44.207,20.926 -44.707,20.424C-45.222,19.911 -45.473,19.236 -45.473,18.363L-45.473,13.485C-45.473,12.638 -45.208,11.925 -44.707,11.424C-44.192,10.908 -43.517,10.658 -42.645,10.658L-27.211,10.658C-21.905,10.658 -16.711,10.856 -11.777,11.247C-11.625,11.26 -11.479,11.266 -11.339,11.266C-9.732,11.266 -8.875,10.465 -8.718,8.817C-8.716,8.789 -8.714,8.76 -8.714,8.731L-8.714,3.041C-8.714,3.012 -8.716,2.984 -8.718,2.955C-8.875,1.308 -9.733,0.507 -11.343,0.507C-11.481,0.507 -11.625,0.513 -11.777,0.526C-17.392,0.917 -22.584,1.115 -27.211,1.115L-42.645,1.115C-43.494,1.115 -44.207,0.851 -44.707,0.349C-45.208,-0.151 -45.473,-0.864 -45.473,-1.713L-45.473,-6.044C-45.473,-7.553 -46.701,-8.782 -48.21,-8.782L-53.574,-8.782C-55.084,-8.782 -56.312,-7.553 -56.312,-6.044L-56.312,-1.713C-56.312,-0.865 -56.577,-0.152 -57.077,0.349C-57.593,0.864 -58.267,1.115 -59.139,1.115L-73.395,1.115C-79.264,1.115 -84.099,0.957 -87.768,0.643C-87.919,0.631 -88.063,0.625 -88.203,0.625C-89.814,0.625 -90.673,1.426 -90.828,3.073C-90.83,3.102 -90.832,3.13 -90.832,3.159L-90.832,8.614C-90.832,8.643 -90.83,8.671 -90.828,8.699C-90.673,10.347 -89.816,11.148 -88.207,11.148C-88.068,11.148 -87.923,11.142 -87.768,11.129C-83.609,10.816 -78.773,10.658 -73.395,10.658L-59.139,10.658C-58.269,10.658 -57.594,10.909 -57.078,11.423C-56.562,11.941 -56.312,12.615 -56.312,13.485L-56.312,18.363C-56.312,19.234 -56.563,19.909 -57.078,20.425C-57.593,20.94 -58.268,21.19 -59.139,21.19L-78.461,21.19C-85.804,21.19 -92.345,20.953 -97.905,20.483C-98.054,20.471 -98.197,20.465 -98.335,20.465C-99.946,20.465 -100.805,21.265 -100.96,22.913C-100.962,22.941 -100.964,22.97 -100.964,22.998L-100.964,29.161C-100.964,29.189 -100.962,29.218 -100.96,29.247C-100.805,30.895 -99.946,31.695 -98.335,31.695C-98.196,31.695 -98.052,31.688 -97.901,31.676C-91.035,31.129 -83.543,30.851 -75.633,30.851L-25.444,30.851C-16.129,30.851 -8.397,31.129 -2.475,31.675C-2.365,31.687 -2.26,31.694 -2.157,31.694C-1.596,31.694 -1.128,31.511 -0.762,31.147C-0.34,30.722 -0.122,30.083 -0.114,29.25C-0.114,29.216 -0.112,29.184 -0.108,29.155C-0.034,28.511 0.004,27.457 0.004,26.021L0.004,22.999C0.004,22.97 0.002,22.941 0,22.913" style="fill:rgb(4,74,116);fill-rule:nonzero;"></path>
    </g>
    <g transform="matrix(2,0,0,2,2251.8194,1497.1474)">
        <path d="M0,49.36C0.037,49.361 0.074,49.363 0.109,49.368C0.659,49.441 1.632,49.478 3.002,49.478C4.322,49.478 5.27,49.442 5.897,49.366C5.929,49.363 5.961,49.361 5.994,49.36C7.37,49.342 8.068,48.511 8.068,46.896L8.068,46.533C7.99,45.296 7.95,43.274 7.95,40.524L7.95,32.815C7.95,31.943 8.201,31.269 8.716,30.753C9.232,30.238 9.906,29.988 10.778,29.988L84.412,29.988C85.282,29.988 85.957,30.239 86.474,30.753C86.975,31.256 87.24,31.969 87.24,32.815L87.24,40.524L87.122,47.004C87.122,48.572 87.8,49.343 89.196,49.361C89.228,49.361 89.26,49.363 89.291,49.366C89.923,49.442 90.948,49.478 92.424,49.478C93.866,49.478 94.879,49.441 95.431,49.368C95.467,49.363 95.503,49.361 95.54,49.36C97.068,49.341 97.843,48.469 97.843,46.768L97.843,46.449C97.843,46.427 97.842,46.404 97.841,46.382C97.608,43.192 97.49,39.636 97.49,35.812L97.49,23.272C97.49,22.402 97.24,21.728 96.724,21.21C96.207,20.695 95.533,20.445 94.662,20.445L81.938,20.445C80.375,20.445 79.582,19.929 79.582,18.913C79.582,18.288 79.85,17.665 80.406,17.028L82.763,14.083C83.554,13.054 84.171,12.399 84.648,12.08C85.119,11.766 85.675,11.508 86.297,11.314C86.864,11.138 87.337,10.808 87.743,10.307C87.971,10.026 88.011,9.637 87.846,9.316C87.59,8.817 86.95,8.181 85.944,7.426C84.229,6.141 82.075,4.925 79.581,3.832C79.113,3.598 78.677,3.479 78.286,3.479C77.427,3.479 76.605,4.056 75.812,5.246C73.711,8.904 71.5,12.458 69.24,15.81C69.223,15.836 69.204,15.861 69.186,15.883C68.729,16.429 68.507,16.996 68.507,17.617C68.507,17.984 68.615,18.318 68.825,18.61C69.012,18.87 69.049,19.215 68.921,19.509C68.793,19.803 68.516,20.01 68.197,20.049L67.859,20.091C65.941,20.326 64.296,20.445 62.97,20.445L55.665,20.445C54.816,20.445 54.103,20.18 53.604,19.679C53.088,19.165 52.838,18.49 52.838,17.617L52.838,10.132C52.838,7.568 53.308,5.32 54.235,3.45C54.246,3.427 54.257,3.404 54.266,3.381C54.506,2.774 54.658,2.317 54.706,2.056C54.717,2 54.723,1.943 54.723,1.885C54.723,1.509 54.521,1.001 53.545,0.707C51.558,0.152 48.629,-0.118 44.591,-0.118L43.166,-0.118C43.065,-0.118 42.965,-0.101 42.869,-0.068C41.763,0.313 41.763,1.849 41.763,2.351L41.763,2.827C41.919,5.808 41.999,8.067 41.999,9.543L41.999,17.617C41.999,18.489 41.748,19.164 41.233,19.679C40.732,20.18 40.019,20.445 39.171,20.445L31.16,20.445C29.747,20.445 28.421,20.337 27.217,20.124C26.899,20.068 26.648,19.864 26.529,19.564C26.411,19.268 26.453,18.939 26.642,18.684C26.903,18.33 27.036,17.892 27.036,17.382C27.036,16.926 26.924,16.426 26.702,15.897C26.69,15.867 26.675,15.837 26.66,15.808C24.941,12.693 22.536,9.145 19.496,5.246C18.782,4.374 18.011,3.95 17.14,3.95C16.676,3.95 16.209,4.063 15.788,4.276C15.787,4.276 15.727,4.303 15.726,4.304L11.484,6.071C10.312,6.54 9.717,7.214 9.717,8.074C9.717,8.63 9.953,9.215 10.424,9.841C11.75,11.714 13.299,14.137 15.019,17.027C15.332,17.578 15.49,18.093 15.49,18.559C15.49,19.105 15.271,19.562 14.842,19.914C14.411,20.266 13.797,20.445 13.016,20.445L0.999,20.445C0.127,20.445 -0.547,20.695 -1.063,21.21C-1.578,21.726 -1.829,22.4 -1.829,23.272L-1.829,35.812C-1.829,39.722 -1.948,43.334 -2.182,46.532C-2.261,47.395 -2.101,48.09 -1.711,48.595C-1.331,49.091 -0.756,49.349 0,49.36" style="fill:rgb(4,74,116);fill-rule:nonzero;"></path>
    </g>
    <g transform="matrix(2,0,0,2,2310.6146,1613.6782)">
        <path d="M0,-8.305C0,-9.177 0.25,-9.852 0.766,-10.367C1.281,-10.882 1.956,-11.133 2.828,-11.133L33.449,-11.133C34.32,-11.133 34.995,-10.881 35.511,-10.367C36.026,-9.85 36.277,-9.175 36.277,-8.305L36.277,0.634C36.277,1.481 36.013,2.194 35.512,2.694C34.996,3.21 34.322,3.461 33.449,3.461L2.828,3.461C1.978,3.461 1.266,3.197 0.766,2.695C0.25,2.182 0,1.507 0,0.634L0,-8.305ZM-10.006,9.494C-9.92,10.85 -8.835,11.95 -7.484,12.051C-7.398,12.058 -7.301,12.062 -7.187,12.062L33.449,12.062C37.509,12.062 41.17,12.183 44.328,12.421C44.396,12.426 44.464,12.428 44.532,12.428C45.259,12.428 45.943,12.147 46.458,11.636C47.022,11.078 47.315,10.303 47.263,9.511C47.024,5.871 46.88,0.904 46.88,-3.777L46.88,-16.905C46.88,-17.006 46.877,-17.093 46.872,-17.166C46.786,-18.521 45.701,-19.62 44.352,-19.722C44.266,-19.728 44.168,-19.733 44.053,-19.733L18.374,-19.733C13.655,-19.733 11.361,-19.825 6.776,-20.009L4.83,-20.086C0.09,-20.274 -4.068,-20.489 -7.526,-20.727C-7.588,-20.731 -7.649,-20.733 -7.71,-20.733C-8.432,-20.733 -9.139,-20.439 -9.649,-19.928C-10.209,-19.366 -10.497,-18.591 -10.441,-17.799C-10.174,-14.081 -10.014,-8.884 -10.014,-3.895L-10.014,9.234C-10.014,9.335 -10.011,9.422 -10.006,9.494" style="fill:rgb(4,74,116);fill-rule:nonzero;"></path>
    </g>
    <g transform="matrix(2,0,0,2,1475.4586,1719.4476)">
        <path d="M0,-19.911C-1.714,-20.806 -3.763,-21.654 -6.092,-22.433C-6.115,-22.44 -6.139,-22.447 -6.162,-22.453C-6.665,-22.577 -7.024,-22.654 -7.201,-22.674C-7.235,-22.678 -7.27,-22.68 -7.305,-22.68C-8.311,-22.68 -9.137,-22.019 -9.759,-20.717C-9.772,-20.691 -9.783,-20.665 -9.793,-20.638C-10.962,-17.447 -12.464,-14.31 -14.255,-11.311C-16.046,-8.315 -17.981,-5.687 -20.006,-3.499C-20.022,-3.483 -20.036,-3.465 -20.05,-3.448C-20.661,-2.682 -20.971,-2.016 -20.971,-1.472C-20.971,-0.691 -20.417,-0.057 -19.322,0.413L-14.61,2.414C-13.976,2.653 -13.436,2.769 -12.96,2.769C-12.189,2.769 -11.446,2.422 -10.749,1.736C-10.731,1.718 -10.714,1.7 -10.698,1.681C-8.285,-1.126 -6.114,-4.244 -4.241,-7.599C-3.223,-9.481 -2.119,-11.649 -0.96,-14.042C-0.948,-14.066 -0.938,-14.091 -0.929,-14.115C-0.461,-15.345 0.169,-16.166 0.943,-16.554C1.45,-16.807 1.816,-17.067 2.061,-17.349C2.378,-17.714 2.355,-18.263 2.009,-18.601C1.629,-18.971 0.953,-19.412 0,-19.911" style="fill:rgb(4,74,116);fill-rule:nonzero;"></path>
    </g>
    <g transform="matrix(2,0,0,2,1519.0504,1718.1128)">
        <path d="M0,-17.653C-0.359,-19.23 -1.323,-20.029 -2.863,-20.029C-3.005,-20.029 -3.152,-20.022 -3.298,-20.009L-7.54,-19.538C-9.151,-19.308 -9.983,-18.507 -10.013,-17.155C-10.014,-17.099 -10.01,-17.042 -10.001,-16.985L-9.896,-16.357C-9.663,-14.957 -9.265,-12.009 -8.718,-7.638L-8.129,0.401C-8.12,1.73 -7.465,2.376 -6.126,2.376C-5.764,2.376 -5.475,2.344 -5.238,2.275C-5.197,2.263 -5.155,2.254 -5.115,2.248L-0.353,1.551C1.548,1.313 2.396,0.309 2.239,-1.512C1.846,-6.675 1.095,-12.097 0,-17.653" style="fill:rgb(4,74,116);fill-rule:nonzero;"></path>
    </g>
    <g transform="matrix(2,0,0,2,1566.4128,1718.859)">
        <path d="M0,-18.733C-0.627,-20.062 -1.499,-20.736 -2.592,-20.736C-2.958,-20.736 -3.251,-20.702 -3.486,-20.633C-3.521,-20.623 -3.558,-20.614 -3.597,-20.608L-7.893,-19.911C-9.399,-19.674 -10.131,-18.946 -10.131,-17.642C-10.123,-17.47 -10.049,-17.104 -9.912,-16.555C-9.902,-16.515 -9.889,-16.476 -9.874,-16.438C-8.943,-14.105 -8.002,-11.278 -7.069,-8.012C-6.131,-5.042 -5.419,-2.238 -4.948,0.354C-4.71,1.463 -4.017,2.003 -2.828,2.003C-2.385,2.003 -2.041,1.967 -1.805,1.896C-1.776,1.888 -1.747,1.881 -1.717,1.875L3.181,0.943C3.884,0.785 4.458,0.488 4.889,0.058C5.325,-0.379 5.537,-0.9 5.537,-1.532C5.537,-1.845 5.497,-2.107 5.411,-2.39C4.315,-6.995 2.502,-12.477 0,-18.733" style="fill:rgb(4,74,116);fill-rule:nonzero;"></path>
    </g>
    <g transform="matrix(2,0,0,2,1613.3032,1722.1578)">
        <path d="M0,-23.21C-0.713,-24.16 -1.516,-24.623 -2.455,-24.624C-2.455,-24.624 -2.499,-24.623 -2.521,-24.622C-2.586,-24.618 -2.783,-24.603 -3.62,-24.396C-3.641,-24.391 -3.662,-24.385 -3.683,-24.379L-8.365,-22.857C-9.616,-22.388 -10.25,-21.714 -10.25,-20.854C-10.25,-20.305 -10.01,-19.709 -9.543,-19.087C-8.214,-17.286 -6.074,-14.037 -3.181,-9.425C-1.148,-6.218 0.687,-2.942 2.249,0.261C2.564,1.026 3.155,1.414 4.006,1.414C4.481,1.414 4.979,1.295 5.569,1.049L11.075,-0.825C12.343,-1.3 12.96,-2.032 12.96,-3.063C12.96,-3.538 12.804,-4.041 12.488,-4.595C9.511,-9.919 5.309,-16.183 0,-23.21" style="fill:rgb(4,74,116);fill-rule:nonzero;"></path>
    </g>
    <g transform="matrix(2,0,0,2,1586.4416,1582.2162)">
        <path d="M0,28.744C0,29.616 -0.251,30.291 -0.766,30.806C-1.281,31.321 -1.956,31.572 -2.828,31.572L-8.601,31.572C-9.45,31.572 -10.163,31.308 -10.662,30.806C-11.178,30.292 -11.428,29.618 -11.428,28.744L-11.428,17.384C-11.428,16.512 -11.178,15.837 -10.663,15.322C-10.147,14.807 -9.473,14.556 -8.601,14.556L-2.828,14.556C-1.957,14.556 -1.282,14.807 -0.766,15.322C-0.251,15.839 0,16.514 0,17.384L0,28.744ZM-20.618,28.744C-20.618,29.616 -20.868,30.291 -21.383,30.806C-21.899,31.321 -22.574,31.572 -23.445,31.572L-28.983,31.572C-29.832,31.572 -30.545,31.308 -31.045,30.806C-31.56,30.292 -31.81,29.618 -31.81,28.744L-31.81,17.384C-31.81,16.512 -31.56,15.838 -31.044,15.322C-30.529,14.807 -29.855,14.556 -28.983,14.556L-23.445,14.556C-22.576,14.556 -21.9,14.807 -21.384,15.322C-20.869,15.839 -20.618,16.513 -20.618,17.384L-20.618,28.744ZM-40.764,28.744C-40.764,29.617 -41.015,30.291 -41.53,30.805C-42.045,31.321 -42.72,31.572 -43.592,31.572L-48.776,31.572C-49.626,31.572 -50.338,31.308 -50.838,30.806C-51.353,30.292 -51.603,29.618 -51.603,28.744L-51.603,17.384C-51.603,16.512 -51.353,15.837 -50.838,15.322C-50.322,14.807 -49.647,14.556 -48.776,14.556L-43.592,14.556C-42.722,14.556 -42.047,14.807 -41.53,15.322C-41.015,15.839 -40.764,16.514 -40.764,17.384L-40.764,28.744ZM25.049,4.542L24.752,4.54C24.75,4.54 24.704,4.54 24.684,4.542C23.522,4.62 21.778,4.66 19.5,4.66L12.842,4.66C11.992,4.66 11.28,4.396 10.78,3.894C10.265,3.38 10.014,2.706 10.014,1.832L10.014,-12.655C10.014,-13.158 9.605,-13.567 9.102,-13.567L0.913,-13.567C0.409,-13.567 0,-13.158 0,-12.655L0,1.832C0,2.704 -0.25,3.378 -0.766,3.894C-1.281,4.409 -1.956,4.66 -2.828,4.66L-8.601,4.66C-9.45,4.66 -10.163,4.396 -10.662,3.894C-11.178,3.38 -11.428,2.706 -11.428,1.832L-11.427,-12.655C-11.427,-12.897 -11.524,-13.128 -11.695,-13.3C-11.866,-13.471 -12.098,-13.567 -12.34,-13.567L-19.706,-13.567C-19.948,-13.567 -20.18,-13.471 -20.351,-13.3C-20.522,-13.128 -20.618,-12.897 -20.618,-12.655L-20.618,1.832C-20.618,2.705 -20.868,3.379 -21.383,3.894C-21.899,4.409 -22.574,4.66 -23.445,4.66L-28.983,4.66C-29.832,4.66 -30.545,4.396 -31.045,3.894C-31.56,3.38 -31.81,2.706 -31.81,1.832L-31.81,-12.655C-31.81,-12.897 -31.906,-13.128 -32.077,-13.3C-32.248,-13.471 -32.48,-13.567 -32.722,-13.567L-39.852,-13.567C-40.094,-13.567 -40.326,-13.471 -40.498,-13.3C-40.669,-13.128 -40.765,-12.897 -40.765,-12.655L-40.764,1.832C-40.764,2.705 -41.015,3.379 -41.53,3.893C-42.045,4.409 -42.72,4.66 -43.592,4.66L-48.776,4.66C-49.626,4.66 -50.338,4.396 -50.838,3.894C-51.353,3.38 -51.603,2.706 -51.603,1.832L-51.603,-12.655C-51.603,-13.158 -52.012,-13.567 -52.516,-13.567L-60.352,-13.567C-60.856,-13.567 -61.264,-13.158 -61.264,-12.655L-61.264,1.832C-61.264,2.681 -61.529,3.393 -62.03,3.893C-62.545,4.409 -63.22,4.66 -64.092,4.66L-70.87,4.66L-76.525,4.542C-78.471,4.542 -78.944,5.667 -78.999,6.662L-78.999,12.318C-78.922,13.881 -78.017,14.674 -76.289,14.674L-70.87,14.556L-64.092,14.556C-63.222,14.556 -62.546,14.807 -62.03,15.322C-61.515,15.839 -61.264,16.514 -61.264,17.384L-61.264,28.744C-61.264,29.617 -61.515,30.291 -62.03,30.805C-62.545,31.321 -63.22,31.572 -64.092,31.572L-69.927,31.572L-74.757,31.454C-76.298,31.454 -77.153,32.211 -77.232,33.692L-77.232,36.638C-77.232,38.112 -77.195,39.134 -77.12,39.77C-77.116,39.804 -77.114,39.839 -77.113,39.866C-77.104,40.716 -76.854,41.337 -76.348,41.763C-75.919,42.126 -75.327,42.311 -74.59,42.311C-74.455,42.311 -74.314,42.306 -74.168,42.293C-67.663,41.776 -58.787,41.468 -50.425,41.468L-0.825,41.468C8.94,41.468 18.041,41.777 23.505,42.293C23.616,42.305 23.722,42.311 23.826,42.311C24.384,42.311 24.851,42.127 25.216,41.762C25.638,41.34 25.855,40.703 25.863,39.866C25.864,39.835 25.865,39.803 25.869,39.771C25.944,39.127 25.982,38.073 25.982,36.638L25.982,33.81C25.902,32.247 25.03,31.454 23.39,31.454L23.074,31.454C23.049,31.454 23.024,31.455 23,31.457C22.07,31.533 20.615,31.572 18.677,31.572L12.842,31.572C11.992,31.572 11.28,31.308 10.78,30.806C10.265,30.292 10.014,29.618 10.014,28.744L10.014,17.384C10.014,16.512 10.265,15.837 10.78,15.322C11.296,14.807 11.97,14.556 12.842,14.556L19.5,14.556L25.037,14.674C26.677,14.674 27.549,13.897 27.629,12.318L27.629,6.898C27.55,5.335 26.68,4.542 25.049,4.542" style="fill:rgb(4,74,116);fill-rule:nonzero;"></path>
    </g>
    <g transform="matrix(2,0,0,2,1488.5026,1546.1656)">
        <path d="M0,-8.73L-0.006,-8.73C-0.337,-8.73 -0.641,-8.551 -0.803,-8.263C-2.138,-5.874 -3.873,-3.191 -5.818,-0.502C-6.019,-0.225 -6.047,0.142 -5.891,0.447C-5.735,0.753 -5.421,0.945 -5.078,0.945L64.848,0.945C66.286,0.945 67.38,0.983 68.1,1.058C68.131,1.061 68.163,1.063 68.194,1.063L68.203,1.063C70.296,1.043 70.8,-0.138 70.856,-1.176L70.856,-4.003C70.856,-5.46 70.819,-6.486 70.744,-7.138C70.74,-7.166 70.739,-7.196 70.738,-7.231C70.728,-8.079 70.459,-8.719 69.914,-9.187C69.438,-9.595 68.861,-9.793 68.151,-9.793C68.038,-9.793 67.923,-9.788 67.793,-9.776C57.008,-9.073 45.958,-8.716 34.949,-8.716L3.258,-8.716C3.212,-8.716 1.065,-8.722 0,-8.73" style="fill:rgb(4,74,116);fill-rule:nonzero;"></path>
    </g>
    <g transform="matrix(2,0,0,2,1448.6566,1516.4344)">
        <path d="M0,25.602L0.907,24.765C0.952,24.722 5.476,20.34 7.054,18.471C12.311,12.24 14.845,8.045 17.779,3.188L18.56,1.898C19.474,0.389 20.616,-1.743 20.812,-2.113C20.824,-2.134 20.839,-2.16 20.849,-2.181C21.324,-3.127 21.881,-3.703 22.553,-3.94C22.795,-4.025 23.007,-4.123 23.184,-4.231C23.434,-4.385 23.596,-4.65 23.617,-4.943C23.638,-5.236 23.518,-5.521 23.292,-5.709C22.917,-6.023 22.332,-6.398 21.552,-6.826C19.923,-7.717 17.917,-8.603 15.59,-9.459C15.558,-9.471 15.526,-9.481 15.493,-9.489C14.586,-9.712 14.331,-9.712 14.247,-9.712C13.231,-9.712 12.406,-9.132 11.773,-7.945C10.994,-6.28 10.147,-4.641 9.181,-2.935C7.527,-0.009 5.715,2.737 3.641,5.46C-0.14,10.425 -4.751,15.248 -10.874,20.641C-12.626,22.198 -14.254,23.292 -15.712,23.894C-15.823,23.939 -15.94,23.963 -16.06,23.963C-16.325,23.963 -16.577,23.848 -16.751,23.647C-17.008,23.349 -17.046,22.922 -16.844,22.583C-16.678,22.304 -16.488,22.027 -16.28,21.76C-15.64,20.941 -14.159,19.381 -11.43,18.132C-11.36,18.1 -11.294,18.059 -11.234,18.01C-8.131,15.488 -4.302,11.39 -0.728,6.766C-0.515,6.491 -0.477,6.119 -0.63,5.806C-0.784,5.494 -1.102,5.296 -1.449,5.296L-1.609,5.296C-16.004,5.296 -24.275,12.277 -27.215,18.81C-29.367,23.592 -28.897,28.602 -25.988,31.884C-23.972,34.16 -21.343,35.314 -18.173,35.314C-13.923,35.314 -9.926,33.77 -5.593,30.456C-3.622,28.949 -1.782,27.249 0,25.602" style="fill:rgb(4,74,116);fill-rule:nonzero;"></path>
    </g>
    <g transform="matrix(2,0,0,2,2111.1582,1615.0762)">
        <path d="M0,-8.247L-34.103,-8.247C-34.606,-8.247 -35.015,-7.838 -35.015,-7.335L-35.015,-0.913C-35.015,-0.409 -34.606,0 -34.103,0L0,0C0.504,0 0.913,-0.409 0.913,-0.913L0.913,-7.335C0.913,-7.838 0.504,-8.247 0,-8.247" style="fill:rgb(4,74,116);fill-rule:nonzero;"></path>
    </g>
    <g transform="matrix(2,0,0,2,2183.696,1721.5498)">
        <path d="M0,-6.235C-11.073,-7.164 -18.737,-8.356 -25.626,-10.224C-25.705,-10.245 -25.785,-10.256 -25.865,-10.256C-26.01,-10.256 -26.154,-10.221 -26.285,-10.153L-30.076,-8.188C-32.26,-7.036 -34.689,-5.908 -37.294,-4.834C-37.642,-4.691 -37.866,-4.348 -37.859,-3.972C-37.851,-3.596 -37.613,-3.262 -37.259,-3.133C-36.246,-2.763 -35.239,-2.409 -34.247,-2.075C-24.081,1.353 -13.872,3.401 -3.898,4.012C-3.799,4.018 -3.702,4.021 -3.607,4.021C-2.156,4.021 -1.141,3.34 -0.505,1.941C-0.495,1.919 -0.486,1.898 -0.478,1.876C0.266,-0.161 1.001,-1.796 1.706,-2.983C1.719,-3.004 1.73,-3.026 1.741,-3.048C2.104,-3.792 2.257,-4.401 2.198,-4.858C2.094,-5.658 1.355,-6.121 0,-6.235" style="fill:rgb(4,74,116);fill-rule:nonzero;"></path>
    </g>
    <g transform="matrix(2,0,0,2,2031.4742,1663.699)">
        <path d="M0,-50.316C-0.162,-50.545 -0.211,-50.83 -0.133,-51.099C0.015,-51.61 0.455,-52.113 1.23,-52.669C9.701,-58.413 16.317,-65.216 20.552,-69.831C21.177,-70.503 21.811,-70.843 22.437,-70.843C23.139,-70.843 23.805,-70.511 24.44,-69.831C30.406,-63.897 36.974,-57.712 44.586,-52.669C45.525,-52.071 46,-51.427 46,-50.756C46,-50.289 45.682,-49.979 45.412,-49.8C45.016,-49.535 44.438,-49.406 43.644,-49.406L30.92,-49.406C29.043,-49.406 28.092,-50.199 28.092,-51.762L28.092,-54.119C28.092,-55.11 28.28,-56.077 28.652,-56.992C28.671,-57.038 28.693,-57.082 28.718,-57.123C29.09,-57.732 29.27,-58.252 29.27,-58.713C29.27,-59.248 28.932,-59.638 28.266,-59.872C28.231,-59.885 28.195,-59.895 28.159,-59.903C26.053,-60.364 23.256,-60.598 19.845,-60.598L18.378,-60.598C18.283,-60.598 18.189,-60.583 18.098,-60.554C17.379,-60.322 17.025,-59.39 17.018,-57.704C17.018,-57.671 17.02,-57.638 17.023,-57.605C17.098,-56.894 17.136,-55.919 17.136,-54.708L17.136,-52.233C17.136,-51.362 16.885,-50.688 16.369,-50.172C16.029,-49.83 15.596,-49.601 15.085,-49.489C15.019,-49.475 14.953,-49.469 14.875,-49.469C11.409,-49.527 7.928,-49.625 4.529,-49.759C3.111,-49.815 1.851,-49.874 0.696,-49.934C0.416,-49.948 0.162,-50.088 0,-50.316M43.582,-18.42C43.582,-17.573 43.318,-16.86 42.817,-16.359C42.301,-15.844 41.627,-15.593 40.755,-15.593L4.827,-15.593C3.977,-15.593 3.265,-15.857 2.765,-16.359C2.25,-16.872 1.999,-17.547 1.999,-18.42L1.999,-37.86C1.999,-38.732 2.25,-39.406 2.766,-39.922C3.281,-40.437 3.955,-40.688 4.827,-40.688L40.755,-40.688C41.625,-40.688 42.3,-40.437 42.817,-39.922C43.318,-39.419 43.582,-38.706 43.582,-37.86L43.582,-18.42ZM60.855,3.178C60.441,0.629 58.387,-2.41 50.947,-2.41C47.588,-2.41 43.145,-2.4 38.492,-2.389L37.998,-2.388C33.041,-2.376 27.883,-2.364 23.573,-2.364C20.787,-2.364 12.309,-2.364 10.981,3.757C10.675,5.171 9.859,8.928 17.582,14.58C17.739,14.695 17.929,14.756 18.12,14.756C18.197,14.756 18.274,14.746 18.349,14.727C21.113,14.012 23.86,13.2 26.516,12.316C26.869,12.198 27.256,12.065 27.674,11.917C28.012,11.798 28.248,11.491 28.279,11.135C28.309,10.778 28.128,10.436 27.816,10.261C26.725,9.649 25.702,9.037 24.773,8.44C24.435,8.223 24.278,7.802 24.391,7.416C24.504,7.03 24.864,6.76 25.266,6.76C29.143,6.758 33.552,6.748 37.86,6.738L42.959,6.726C43.385,6.726 43.75,7.016 43.848,7.43C43.945,7.845 43.746,8.268 43.364,8.457C40.173,10.035 34.811,12.436 27.382,14.913C20.181,17.313 12.694,19.075 5.126,20.152C4.996,20.171 4.865,20.181 4.736,20.181C4.078,20.181 3.44,19.943 2.941,19.511C2.342,18.99 1.998,18.236 1.998,17.443L1.998,-4.165C1.998,-5.036 2.249,-5.711 2.764,-6.227C3.281,-6.742 3.955,-6.993 4.827,-6.993L39.991,-6.993C44.305,-6.993 48.529,-6.861 51.884,-6.623C51.949,-6.619 52.014,-6.616 52.079,-6.616C52.806,-6.616 53.49,-6.898 54.007,-7.411C54.567,-7.967 54.86,-8.738 54.811,-9.527C54.629,-12.4 54.495,-16.403 54.443,-20.504L54.421,-23.87L54.421,-42.177C54.421,-42.227 54.425,-42.278 54.435,-42.331C54.512,-42.788 54.671,-43.165 54.904,-43.451C55.258,-43.881 55.713,-44.098 56.259,-44.098C56.726,-44.098 57.242,-43.94 57.79,-43.628L59.549,-42.624C63.839,-39.977 66.888,-38.382 70.428,-36.934C70.877,-36.75 71.359,-36.581 71.842,-36.581C72.684,-36.581 73.5,-37.075 74.268,-38.05C74.299,-38.09 74.327,-38.131 74.351,-38.176C75.283,-39.874 76.375,-41.511 77.615,-43.06C78.084,-43.685 78.321,-44.28 78.321,-44.827C78.321,-45.688 77.729,-46.361 76.554,-46.831C68.285,-50.059 57.403,-55.849 49.476,-61.238C40.859,-67.095 33.5,-74.818 28.681,-80.151C27.663,-81.167 26.474,-81.682 25.147,-81.682L18.667,-81.682C17.24,-81.682 16.124,-81.145 15.25,-80.033C9.605,-72.704 3.402,-66.519 -3.188,-61.651C-12.481,-54.787 -23.69,-49.297 -29.526,-46.644C-30.62,-46.176 -31.175,-45.502 -31.175,-44.642C-31.175,-44.173 -30.887,-43.564 -30.35,-42.875L-27.55,-38.79C-27.534,-38.766 -27.518,-38.741 -27.503,-38.713C-26.959,-37.722 -26.212,-37.22 -25.285,-37.22C-24.903,-37.22 -24.401,-37.333 -23.791,-37.559C-23.766,-37.568 -23.742,-37.578 -23.718,-37.59C-21.21,-38.775 -18.222,-40.374 -13.732,-42.935L-12.021,-43.901C-11.473,-44.214 -10.958,-44.373 -10.49,-44.373C-9.943,-44.373 -9.487,-44.154 -9.135,-43.724C-8.983,-43.538 -8.861,-43.312 -8.775,-43.056C-8.746,-42.972 -8.731,-42.885 -8.727,-42.797C-8.647,-40.649 -8.606,-38.338 -8.605,-35.928L-8.605,18C-8.605,19.473 -9.804,20.701 -11.277,20.737C-12.516,20.765 -13.698,20.779 -14.769,20.786C-16.269,20.796 -17.489,22.023 -17.489,23.522L-17.491,28.627C-17.491,29.354 -17.195,30.063 -16.68,30.571C-16.158,31.091 -15.483,31.366 -14.729,31.366L-14.72,31.366C-3.975,31.267 9.249,30.575 30.267,23.569C38.263,20.903 45.651,17.759 51.07,14.717C56.353,11.751 61.647,8.061 60.855,3.178" style="fill:rgb(4,74,116);fill-rule:nonzero;"></path>
    </g>
    <g transform="matrix(2,0,0,2,1776.203,1555.463)">
        <path d="M0,46.235C0,45.739 -0.061,45.473 -0.118,45.293L-1.296,40.815C-1.609,39.408 -2.323,38.695 -3.417,38.695C-3.89,38.695 -4.365,38.817 -4.83,39.048L-10.721,41.64C-11.198,41.878 -11.622,41.994 -12.017,41.994C-13.384,41.994 -14.02,41.17 -14.02,39.402L-14.02,19.352C-14.02,18.481 -13.77,17.806 -13.255,17.29C-12.738,16.775 -12.064,16.525 -11.193,16.525L-8.129,16.525C-6.614,16.525 -5.481,16.563 -4.761,16.637C-4.729,16.641 -4.661,16.642 -4.658,16.642C-2.992,16.628 -2.138,15.891 -2.121,14.45C-2.12,14.419 -2.118,14.388 -2.115,14.357C-2.041,13.716 -2.003,12.662 -2.003,11.224L-2.003,8.396C-2.082,6.745 -3.028,5.936 -4.893,5.921C-4.896,5.921 -4.965,5.923 -4.997,5.927C-5.696,6.001 -6.749,6.039 -8.129,6.039L-11.193,6.039C-12.042,6.039 -12.755,5.775 -13.255,5.273C-13.77,4.76 -14.02,4.085 -14.02,3.211L-14.02,-6.127C-14.02,-8.863 -13.418,-11.454 -12.253,-13.784C-11.941,-14.332 -11.782,-14.847 -11.782,-15.316C-11.782,-15.935 -12.11,-16.353 -12.784,-16.592C-12.82,-16.605 -12.857,-16.615 -12.894,-16.623C-14.999,-17.085 -17.915,-17.319 -21.56,-17.319L-22.984,-17.319C-23.085,-17.319 -23.186,-17.302 -23.281,-17.269C-24.388,-16.889 -24.388,-15.35 -24.388,-14.845L-24.388,-14.408C-24.388,-14.385 -24.387,-14.363 -24.386,-14.34C-24.152,-11.221 -24.034,-7.783 -24.034,-4.124L-24.034,3.211C-24.034,4.083 -24.285,4.758 -24.8,5.274C-25.301,5.775 -26.014,6.039 -26.861,6.039L-30.279,6.039L-34.284,5.921C-35.825,5.921 -36.68,6.679 -36.759,8.16L-36.759,14.123C-36.759,14.155 -36.757,14.186 -36.754,14.217C-36.586,15.825 -35.686,16.642 -34.049,16.642L-30.279,16.525L-26.862,16.525C-25.992,16.525 -25.317,16.776 -24.8,17.291C-24.285,17.808 -24.034,18.482 -24.034,19.352L-24.034,45.057C-24.034,46.542 -24.801,47.657 -26.273,48.356L-36.17,52.479C-37.438,52.954 -38.054,53.758 -38.054,54.983C-38.045,55.157 -37.97,55.528 -37.831,56.086C-37.823,56.116 -37.814,56.146 -37.803,56.175L-35.816,61.669C-35.341,62.937 -34.57,63.554 -33.46,63.554C-32.906,63.554 -32.475,63.474 -32.164,63.318C-18.891,57.151 -8.718,52.323 -1.886,48.945C-0.634,48.241 0,47.329 0,46.235" style="fill:rgb(4,74,116);fill-rule:nonzero;"></path>
    </g>
    <g transform="matrix(2,0,0,2,1895.0764,1698.5952)">
        <path d="M0,-85.124C0.939,-85.359 1.653,-85.478 2.121,-85.478C2.75,-85.478 3.368,-85.323 4.005,-85.007C4.629,-84.694 5.105,-84.535 5.441,-84.535C5.708,-84.535 5.961,-84.651 6.134,-84.854C6.308,-85.057 6.384,-85.325 6.343,-85.588C6.256,-86.141 5.945,-86.976 5.419,-88.07C4.405,-90.176 3.007,-92.329 1.296,-94.431C0.669,-95.291 -0.203,-95.727 -1.296,-95.727C-1.526,-95.727 -1.94,-95.654 -2.528,-95.51C-2.549,-95.504 -2.571,-95.499 -2.592,-95.492C-11.906,-92.466 -29.652,-89.755 -46.815,-87.133L-47.848,-86.975C-47.874,-86.971 -47.898,-86.968 -47.928,-86.966C-48.151,-86.952 -48.374,-86.945 -48.597,-86.945C-49.533,-86.945 -50.488,-87.073 -51.42,-87.323L-53.896,-88.029C-54.134,-88.107 -54.491,-88.147 -54.956,-88.147C-56.363,-88.147 -57.076,-87.315 -57.076,-85.673L-57.076,-47.009C-57.076,-37.16 -57.909,-28.042 -59.551,-19.912C-61.192,-11.782 -64.573,-4.354 -69.564,2.121C-70.112,2.746 -70.39,3.38 -70.39,4.005C-70.39,4.88 -69.764,5.629 -69.211,6.126C-67.806,7.297 -66.662,8.399 -65.795,9.425C-65.09,10.207 -64.376,10.603 -63.674,10.603C-62.961,10.603 -62.341,10.251 -61.789,9.542C-55.849,2.196 -51.806,-6.445 -49.772,-16.141C-47.739,-25.836 -46.709,-36.181 -46.709,-46.891L-46.709,-74.952C-46.709,-76.671 -45.838,-77.662 -44.116,-77.897L-39.813,-78.508C-24.437,-80.685 -8.537,-82.938 0,-85.124" style="fill:rgb(4,74,116);fill-rule:nonzero;"></path>
    </g>
    <g transform="matrix(2,0,0,2,1910.5012,1590.9668)">
        <path d="M0,-7.291C-0.003,-7.32 -0.004,-7.35 -0.005,-7.375C-0.013,-8.224 -0.262,-8.846 -0.77,-9.277C-1.201,-9.64 -1.795,-9.824 -2.534,-9.824C-2.667,-9.824 -2.804,-9.819 -2.95,-9.807C-11.412,-9.212 -19.779,-8.871 -25.905,-8.871C-32.517,-8.871 -42.686,-9.137 -48.512,-9.629C-48.674,-9.643 -48.831,-9.649 -48.982,-9.649C-50.725,-9.649 -51.654,-8.782 -51.822,-6.997C-51.824,-6.968 -51.826,-6.94 -51.826,-6.911L-51.826,-0.205C-51.826,-0.176 -51.824,-0.148 -51.822,-0.12C-51.654,1.665 -50.725,2.533 -48.981,2.533C-48.831,2.533 -48.674,2.526 -48.511,2.513C-41.178,1.929 -32.847,1.621 -24.419,1.621C-13.306,1.621 -6.28,1.737 -2.949,1.975C-2.798,1.987 -2.652,1.994 -2.511,1.994C-0.904,1.994 -0.047,1.193 0.109,-0.455C0.112,-0.483 0.113,-0.512 0.113,-0.541L0.113,-3.681C0.113,-5.351 0.075,-6.563 0,-7.291" style="fill:rgb(4,74,116);fill-rule:nonzero;"></path>
    </g>
    <g transform="matrix(2,0,0,2,1886.6926,1660.475)">
        <path d="M0,12.91C0,13.009 -0.003,13.096 -0.008,13.168C-0.095,14.524 -1.194,15.612 -2.57,15.697C-2.644,15.702 -2.729,15.706 -2.828,15.706L-25.92,15.706C-26.019,15.706 -26.103,15.702 -26.178,15.697C-27.551,15.612 -28.652,14.528 -28.739,13.169C-28.744,13.096 -28.747,13.009 -28.747,12.91L-28.747,-6.542C-28.747,-6.641 -28.744,-6.725 -28.739,-6.798C-28.654,-8.157 -27.555,-9.244 -26.179,-9.329C-26.105,-9.334 -26.019,-9.338 -25.92,-9.338L-2.828,-9.338C-2.729,-9.338 -2.643,-9.334 -2.569,-9.33C-1.195,-9.245 -0.094,-8.16 -0.008,-6.8C-0.003,-6.726 0,-6.641 0,-6.542L0,12.91ZM10.603,-6.426C10.603,-10.208 10.72,-13.613 10.949,-16.548C11.011,-17.339 10.721,-18.113 10.154,-18.673C9.637,-19.183 8.95,-19.464 8.22,-19.464C8.148,-19.464 8.076,-19.461 8.003,-19.456C5.178,-19.234 1.891,-19.122 -1.767,-19.122L-14.138,-19.122C-22.975,-19.122 -30.387,-19.386 -36.167,-19.907C-36.25,-19.914 -36.333,-19.918 -36.416,-19.918C-37.142,-19.918 -37.827,-19.64 -38.343,-19.134C-38.918,-18.57 -39.211,-17.788 -39.144,-16.991C-38.89,-13.93 -38.761,-10.336 -38.761,-6.31L-38.761,19.433C-38.761,23.591 -38.882,27.292 -39.118,30.41C-39.187,31.103 -39.059,31.628 -38.725,32.014C-38.367,32.428 -37.792,32.655 -36.963,32.707C-36.907,32.71 -36.851,32.715 -36.795,32.722C-36.23,32.793 -35.227,32.828 -33.813,32.828C-32.517,32.828 -31.561,32.791 -30.915,32.717L-30.815,32.708C-29.016,32.581 -28.747,31.051 -28.747,30.149L-28.747,28.285C-28.747,28.187 -28.744,28.103 -28.739,28.03C-28.654,26.671 -27.555,25.582 -26.177,25.498C-26.103,25.493 -26.018,25.49 -25.92,25.49L-2.828,25.49C-2.728,25.49 -2.642,25.493 -2.569,25.498C-1.195,25.582 -0.093,26.687 -0.007,28.042C-0.005,28.122 0,28.6 0,28.634C0,29.289 -0.034,29.796 -0.103,30.185C-0.113,30.246 -0.118,30.307 -0.117,30.368C-0.087,31.521 0.569,32.151 1.825,32.242L1.942,32.252C2.593,32.325 3.763,32.362 5.419,32.362C7.122,32.362 8.356,32.322 9.072,32.246C9.942,32.166 10.558,31.862 10.957,31.313C11.346,30.773 11.505,30.068 11.428,29.217C10.881,23.27 10.603,15.589 10.603,6.387L10.603,-6.426Z" style="fill:rgb(4,74,116);fill-rule:nonzero;"></path>
    </g>
    <g transform="matrix(2,0,0,2,2196.4162,410.9034)">
        <path d="M0,102.151C-0.116,102.151 -0.233,102.135 -0.347,102.103L-0.677,102.009C-15.904,97.687 -31.651,93.219 -44.415,85.867C-57.738,78.191 -69.907,66.546 -81.675,55.285C-100.506,37.266 -118.288,20.251 -138.318,20.233C-147.487,20.233 -156.881,23.969 -167.881,31.989C-168.099,32.147 -168.36,32.231 -168.625,32.231C-168.72,32.231 -168.815,32.22 -168.91,32.199C-172.687,31.326 -176.475,30.4 -180.138,29.505L-180.329,29.458C-183.527,28.676 -187.052,27.814 -190.643,26.974C-191.106,26.866 -191.469,26.508 -191.583,26.047C-191.698,25.586 -191.543,25.099 -191.184,24.788C-165.847,2.817 -149.639,0 -138.349,0C-110.158,0.026 -88.57,20.684 -67.693,40.66C-56.287,51.576 -45.517,61.883 -34.313,68.336C-26.029,73.109 -15.741,76.501 -6.77,79.189C-6.411,79.296 -6.118,79.557 -5.971,79.902C-2.936,86.992 -0.538,94.648 1.212,100.526C1.344,100.969 1.224,101.447 0.899,101.776C0.659,102.019 0.333,102.151 0,102.151" style="fill:rgb(4,74,116);fill-rule:nonzero;"></path>
    </g>
    <g transform="matrix(2,0,0,2,2306.7014,460.7998)">
        <path d="M0,166.602C-0.341,166.602 -0.672,166.464 -0.914,166.212C-11.362,155.29 -23.205,142.912 -30.874,129.6C-38.23,116.832 -42.697,101.089 -47.015,85.865C-54.221,60.469 -61.027,36.481 -79.37,25.892C-86.058,22.031 -93.918,20.153 -103.401,20.153C-105.97,20.153 -108.724,20.293 -111.585,20.569C-111.625,20.573 -111.666,20.575 -111.706,20.575C-112.026,20.575 -112.335,20.454 -112.571,20.233C-115.083,17.878 -117.601,15.47 -120.043,13.133L-120.284,12.904C-122.887,10.412 -125.837,7.589 -128.814,4.81C-129.163,4.485 -129.299,3.992 -129.167,3.534C-129.034,3.076 -128.656,2.732 -128.188,2.643C-118.682,0.84 -110.778,0 -103.318,0C-90.153,0 -79.011,2.738 -69.255,8.371C-43.805,23.064 -35.171,53.492 -27.553,80.339C-23.381,95.039 -19.442,108.915 -13.343,119.501C-8.392,128.097 -1.262,136.241 5.058,143.074C5.31,143.348 5.431,143.718 5.385,144.088C4.442,151.749 2.669,159.626 1.229,165.632C1.122,166.083 0.777,166.437 0.33,166.558C0.221,166.588 0.11,166.602 0,166.602" style="fill:rgb(4,74,116);fill-rule:nonzero;"></path>
    </g>
    <g transform="matrix(2,0,0,2,2312.539,590.7846)">
        <path d="M0,205.119C-0.106,205.119 -0.214,205.106 -0.32,205.078C-0.769,204.96 -1.118,204.606 -1.229,204.155C-4.528,190.638 -8.635,173.816 -8.622,158.485C-8.608,143.754 -4.606,127.89 -0.734,112.548C5.724,86.944 11.823,62.763 1.234,44.422C-3.643,35.974 -11.54,29.448 -23.619,23.881C-23.952,23.728 -24.201,23.438 -24.304,23.088C-25.146,20.211 -25.979,17.28 -26.822,14.312C-27.92,10.442 -29.163,6.055 -30.5,1.631C-30.637,1.174 -30.508,0.68 -30.163,0.351C-29.924,0.122 -29.61,0 -29.29,0C-29.148,0 -29.007,0.024 -28.87,0.072C2.462,11.086 13.316,24.886 18.756,34.307C33.45,59.757 25.713,90.426 18.886,117.485C15.15,132.292 11.622,146.274 11.61,158.504C11.602,168.221 13.587,178.409 15.528,187.094C15.61,187.46 15.525,187.843 15.297,188.141C10.772,194.032 5.492,199.827 0.924,204.718C0.682,204.977 0.346,205.119 0,205.119" style="fill:rgb(4,74,116);fill-rule:nonzero;"></path>
    </g>
    <g transform="matrix(2,0,0,2,2213.758,801.1008)">
        <path d="M0,192.203C-0.329,192.203 -0.651,192.075 -0.891,191.835C-1.222,191.507 -1.344,191.024 -1.212,190.578C3.416,175.043 8.183,160.037 15.582,147.222C23.638,133.265 35.509,120.736 46.987,108.62C64.607,90.021 81.249,72.456 81.232,53.355C81.223,43.983 77.596,34.556 69.817,23.686C69.603,23.386 69.53,23.009 69.616,22.651C70.346,19.641 71.116,16.584 71.896,13.487L71.955,13.257C72.839,9.754 73.939,5.397 74.982,0.974C75.092,0.512 75.451,0.149 75.913,0.036C76.012,0.011 76.113,0 76.213,0C76.576,0 76.928,0.156 77.171,0.438C98.683,25.377 101.454,41.807 101.464,53.336C101.489,80.511 81.256,101.865 61.69,122.517C51.006,133.797 39.964,145.453 33.103,157.337C29.194,164.108 25.747,172.395 21.925,184.205C21.81,184.558 21.546,184.843 21.201,184.985C14.298,187.821 6.441,190.303 0.368,192.149C0.247,192.186 0.123,192.203 0,192.203" style="fill:rgb(4,74,116);fill-rule:nonzero;"></path>
    </g>
    <g transform="matrix(2,0,0,2,2079.0894,1036.1476)">
        <path d="M0,134.257C-0.054,134.257 -0.109,134.254 -0.164,134.247C-7.676,133.268 -15.313,131.574 -21.794,130.047C-22.246,129.94 -22.604,129.594 -22.724,129.145C-22.846,128.696 -22.711,128.217 -22.373,127.898C-9.964,116.153 1.354,105.828 14.204,98.41C28.164,90.35 44.714,85.433 60.72,80.677C85.273,73.382 108.458,66.493 117.993,49.944C122.757,41.675 124.304,31.445 122.862,17.752C122.824,17.39 122.943,17.03 123.189,16.763C126.124,13.573 129.23,10.294 131.726,7.659C133.901,5.364 136.23,2.905 138.56,0.402C138.802,0.142 139.139,0 139.485,0C139.601,0 139.718,0.015 139.833,0.048C140.29,0.179 140.635,0.555 140.726,1.022C147.183,34.126 141.337,49.953 135.523,60.044C121.958,83.589 93.759,91.967 66.488,100.069C51.592,104.496 36.207,109.069 24.32,115.932C15.521,121.012 7.155,128.219 0.849,133.93C0.615,134.142 0.312,134.257 0,134.257" style="fill:rgb(4,74,116);fill-rule:nonzero;"></path>
    </g>
    <g transform="matrix(2,0,0,2,2102.2686,1238.0542)">
        <path d="M0,58.161C-15.77,58.161 -32.416,54.091 -48.514,50.156C-63.822,46.412 -78.282,42.876 -91.198,42.876C-100.705,42.885 -111.082,45.026 -119.978,47.119C-120.074,47.141 -120.171,47.152 -120.267,47.152C-120.54,47.152 -120.808,47.064 -121.03,46.896C-127.102,42.306 -133.062,36.861 -137.575,32.63C-137.912,32.314 -138.05,31.839 -137.934,31.391C-137.818,30.943 -137.468,30.595 -137.019,30.482C-121.774,26.635 -106.01,22.658 -91.281,22.644C-75.851,22.644 -59.518,26.637 -43.724,30.498C-28.107,34.317 -13.358,37.923 -0.127,37.923C9.046,37.923 16.565,36.161 22.86,32.534C30.86,27.924 37.175,19.884 42.733,7.23C42.88,6.896 43.164,6.642 43.511,6.533C47.722,5.208 52.018,3.931 55.808,2.804L56.572,2.578C59.2,1.796 62.083,0.938 64.967,0.055C65.089,0.018 65.214,0 65.337,0C65.675,0 66.005,0.135 66.247,0.385C66.577,0.728 66.688,1.225 66.534,1.675C55.51,33.771 42.8,44.395 32.959,50.064C23.505,55.512 12.723,58.161 0,58.161" style="fill:rgb(4,74,116);fill-rule:nonzero;"></path>
    </g>
    <g transform="matrix(2,0,0,2,1919.7238,1200.4336)">
        <path d="M0,102.151C-28.139,102.125 -49.728,81.467 -70.604,61.491C-82.012,50.574 -92.785,40.266 -103.984,33.813C-112.269,29.039 -122.557,25.649 -131.528,22.961C-131.888,22.854 -132.18,22.593 -132.328,22.248C-135.364,15.156 -137.762,7.501 -139.51,1.625C-139.642,1.182 -139.522,0.704 -139.197,0.375C-138.957,0.131 -138.631,0 -138.298,0C-138.182,0 -138.066,0.016 -137.952,0.048L-137.621,0.142C-122.394,4.463 -106.647,8.93 -93.884,16.283C-80.565,23.957 -68.396,35.601 -56.628,46.861C-37.797,64.882 -20.012,81.9 0.019,81.918C9.189,81.918 18.583,78.182 29.581,70.161C29.799,70.003 30.061,69.919 30.326,69.919C30.421,69.919 30.517,69.93 30.611,69.952C34.372,70.82 38.271,71.773 41.71,72.614L41.852,72.649C45.325,73.498 48.813,74.35 52.346,75.176C52.809,75.284 53.172,75.642 53.286,76.104C53.4,76.564 53.246,77.051 52.887,77.363C27.549,99.333 11.34,102.151 0.051,102.151L0,102.151Z" style="fill:rgb(4,74,116);fill-rule:nonzero;"></path>
    </g>
    <g transform="matrix(2,0,0,2,1739.4912,1021.6352)">
        <path d="M0,166.604C-13.167,166.604 -24.311,163.866 -34.07,158.231C-59.52,143.538 -68.154,113.11 -75.772,86.263C-79.942,71.569 -83.88,57.69 -89.98,47.1C-94.934,38.501 -102.062,30.358 -108.382,23.527C-108.634,23.253 -108.754,22.883 -108.708,22.513C-107.767,14.864 -105.993,6.981 -104.553,0.97C-104.446,0.519 -104.101,0.165 -103.654,0.043C-103.545,0.014 -103.434,0 -103.324,0C-102.983,0 -102.652,0.138 -102.41,0.39C-91.962,11.311 -80.119,23.689 -72.45,37.001C-65.098,49.762 -60.632,65.503 -56.313,80.726C-49.101,106.136 -42.294,130.122 -23.955,140.71C-17.267,144.572 -9.405,146.45 0.078,146.45C2.656,146.449 5.41,146.309 8.263,146.033C8.303,146.03 8.344,146.028 8.384,146.028C8.704,146.028 9.013,146.149 9.249,146.37C11.888,148.844 14.537,151.379 16.889,153.63C19.516,156.144 22.494,158.995 25.489,161.791C25.838,162.116 25.973,162.609 25.841,163.068C25.709,163.525 25.33,163.869 24.863,163.958C15.354,165.762 7.454,166.603 0,166.604" style="fill:rgb(4,74,116);fill-rule:nonzero;"></path>
    </g>
    <g transform="matrix(2,0,0,2,1585.5832,814.6136)">
        <path d="M0,205.119C-0.141,205.119 -0.282,205.095 -0.419,205.048C-31.752,194.031 -42.606,180.233 -48.044,170.813C-62.738,145.361 -55.001,114.693 -48.174,87.635C-44.438,72.827 -40.91,58.846 -40.899,46.616C-40.89,36.899 -42.875,26.71 -44.816,18.025C-44.898,17.659 -44.814,17.276 -44.585,16.979C-40.065,11.091 -34.783,5.294 -30.212,0.4C-29.969,0.142 -29.634,0 -29.288,0C-29.181,0 -29.073,0.013 -28.967,0.041C-28.518,0.158 -28.169,0.513 -28.059,0.964C-24.76,14.487 -20.653,31.316 -20.667,46.635C-20.68,61.356 -24.682,77.223 -28.552,92.567C-35.013,118.176 -41.112,142.356 -30.523,160.697C-25.644,169.146 -17.747,175.673 -5.67,181.238C-5.338,181.391 -5.088,181.68 -4.985,182.031C-4.143,184.909 -3.31,187.839 -2.467,190.808C-1.437,194.443 -0.154,198.967 1.21,203.49C1.348,203.945 1.218,204.44 0.874,204.769C0.634,204.998 0.32,205.119 0,205.119" style="fill:rgb(4,74,116);fill-rule:nonzero;"></path>
    </g>
    <g transform="matrix(2,0,0,2,1481.484,510.972)">
        <path d="M0,134.26C-0.116,134.26 -0.233,134.244 -0.348,134.211C-0.805,134.08 -1.15,133.705 -1.241,133.238C-7.698,100.138 -1.852,84.307 3.962,74.214C17.527,50.67 45.725,42.291 72.995,34.19C87.885,29.764 103.28,25.188 115.165,18.327C123.96,13.249 132.33,6.041 138.639,0.327C138.872,0.115 139.176,0 139.488,0C139.542,0 139.596,0.003 139.651,0.01C147.189,0.995 155.168,2.774 161.277,4.213C161.729,4.321 162.087,4.666 162.208,5.115C162.329,5.565 162.194,6.043 161.857,6.363C149.446,18.108 138.128,28.432 125.281,35.848C111.333,43.902 94.792,48.818 78.798,53.573C54.226,60.873 31.028,67.766 21.492,84.317C16.728,92.585 15.181,102.814 16.623,116.507C16.661,116.868 16.542,117.228 16.297,117.495C13.587,120.444 10.803,123.389 7.707,126.656C5.212,129.29 3.047,131.579 0.925,133.857C0.683,134.118 0.346,134.26 0,134.26" style="fill:rgb(4,74,116);fill-rule:nonzero;"></path>
    </g>
    <g transform="matrix(2,0,0,2,1473.3604,630.1274)">
        <path d="M0,192.206C-0.362,192.206 -0.714,192.05 -0.958,191.768C-22.471,166.829 -25.242,150.398 -25.252,138.87C-25.276,111.696 -5.044,90.34 14.522,69.687C25.204,58.411 36.244,46.758 43.109,34.868C47.02,28.095 50.467,19.808 54.289,8C54.404,7.646 54.668,7.36 55.012,7.219C61.906,4.389 69.768,1.903 75.846,0.055C75.967,0.018 76.091,0 76.213,0C76.543,0 76.864,0.129 77.105,0.368C77.435,0.697 77.559,1.179 77.425,1.625C72.796,17.163 68.029,32.17 60.631,44.983C52.572,58.943 40.703,71.471 29.226,83.586C11.604,102.185 -5.037,119.749 -5.02,138.851C-5.012,148.221 -1.384,157.649 6.396,168.52C6.61,168.819 6.683,169.197 6.597,169.554C5.849,172.639 5.06,175.774 4.259,178.949C3.316,182.686 2.247,186.92 1.231,191.232C1.121,191.695 0.762,192.057 0.301,192.17C0.201,192.195 0.1,192.206 0,192.206" style="fill:rgb(4,74,116);fill-rule:nonzero;"></path>
    </g>
    <g transform="matrix(2,0,0,2,1606.5966,461.264)">
        <path d="M0,58.16C-0.338,58.16 -0.667,58.025 -0.91,57.775C-1.24,57.432 -1.35,56.934 -1.196,56.485C9.832,24.385 22.541,13.764 32.38,8.095C41.833,2.648 52.614,0 65.339,0C81.113,0 97.754,4.069 113.847,8.004C129.167,11.749 143.629,15.284 156.537,15.284C166.053,15.274 176.426,13.134 185.318,11.042C185.414,11.019 185.511,11.009 185.607,11.009C185.88,11.009 186.148,11.097 186.37,11.264C192.437,15.851 198.399,21.297 202.915,25.53C203.252,25.846 203.39,26.321 203.274,26.769C203.158,27.217 202.808,27.565 202.359,27.679C187.111,31.525 171.345,35.503 156.62,35.517C141.189,35.517 124.856,31.524 109.062,27.662C93.448,23.843 78.7,20.236 65.465,20.236C56.291,20.236 48.773,21.999 42.48,25.625C34.477,30.236 28.163,38.277 22.607,50.929C22.46,51.263 22.176,51.517 21.829,51.626C17.693,52.929 13.526,54.168 9.498,55.366L9.352,55.409C6.559,56.239 3.465,57.159 0.369,58.105C0.248,58.143 0.124,58.16 0,58.16" style="fill:rgb(4,74,116);fill-rule:nonzero;"></path>
    </g>
    <g transform="matrix(2,0,0,2,2158.6496,787.8982)">
        <path d="M0,-4.835L0,-11.522L4.46,-11.522L4.46,6.687L0,6.687L0,0.001L-17.519,0.001L-17.519,-4.835L0,-4.835Z" style="fill:rgb(4,74,116);fill-rule:nonzero;"></path>
    </g>
    <g transform="matrix(2,0,0,2,2145.4664,823.118)">
        <path d="M0,13.249L0.061,13.249C3.829,13.249 6.969,10.488 6.969,6.594C6.969,2.7 3.892,0 0.125,0L0.061,0C-3.707,0 -6.845,2.763 -6.845,6.657C-6.845,10.549 -3.77,13.249 0,13.249M0,-5.055L0.061,-5.055C6.309,-5.055 11.427,-0.124 11.427,6.657C11.427,13.439 6.372,18.304 0.125,18.304L0.061,18.304C-6.187,18.304 -11.305,13.376 -11.305,6.594C-11.305,-0.188 -6.25,-5.055 0,-5.055" style="fill:rgb(4,74,116);fill-rule:nonzero;"></path>
    </g>
    <g transform="matrix(2,0,0,2,2167.5696,914.6046)">
        <path d="M0,-19.999L0,-15.166L-9.608,-15.166L0,-6.311L0,-0.378L-9.325,-9.357L-21.979,0L-21.979,-5.809L-12.622,-12.622L-15.26,-15.166L-21.979,-15.166L-21.979,-19.999L0,-19.999Z" style="fill:rgb(4,74,116);fill-rule:nonzero;"></path>
    </g>
    <g transform="matrix(2,0,0,2,2140.9406,948.7602)">
        <path d="M0,-4.836L13.314,-13.281L13.314,-7.631L4.492,-2.388L13.314,2.95L13.314,8.445L0.095,0L-8.664,0L-8.664,-4.836L0,-4.836Z" style="fill:rgb(4,74,116);fill-rule:nonzero;"></path>
    </g>
    <g transform="matrix(2,0,0,2,2145.4664,986.106)">
        <path d="M0,13.253L0.061,13.253C3.829,13.253 6.969,10.488 6.969,6.596C6.969,2.704 3.892,0.002 0.125,0.002L0.061,0.002C-3.707,0.002 -6.845,2.765 -6.845,6.659C-6.845,10.551 -3.77,13.253 0,13.253M0,-5.053L0.061,-5.053C6.309,-5.053 11.427,-0.123 11.427,6.659C11.427,13.441 6.372,18.306 0.125,18.306L0.061,18.306C-6.187,18.306 -11.305,13.377 -11.305,6.596C-11.305,-0.186 -6.25,-5.053 0,-5.053" style="fill:rgb(4,74,116);fill-rule:nonzero;"></path>
    </g>
    <g transform="matrix(2,0,0,2,1715.6368,804.8568)">
        <path d="M0,-20.001L0,-15.165L-9.608,-15.165L0,-6.311L0,-0.378L-9.325,-9.357L-21.979,0L-21.979,-5.809L-12.622,-12.622L-15.261,-15.165L-21.979,-15.165L-21.979,-20.001L0,-20.001Z" style="fill:rgb(4,74,116);fill-rule:nonzero;"></path>
    </g>
    <g transform="matrix(2,0,0,2,1690.076,830.784)">
        <path d="M0,5.714L7.128,2.795L0,-0.126L0,5.714ZM12.937,0.629L12.937,5.087L-9.198,14.505L-9.198,9.45L-4.27,7.441L-4.27,-1.853L-9.198,-3.862L-9.198,-8.791L12.937,0.629Z" style="fill:rgb(4,74,116);fill-rule:nonzero;"></path>
    </g>
    <g transform="matrix(2,0,0,2,1715.6368,911.9112)">
        <path d="M0,-19.528L0,-15.07L-13.534,-4.772L0,-4.772L0,0L-21.979,0L-21.979,-4.114L-8.008,-14.758L-21.979,-14.758L-21.979,-19.528L0,-19.528Z" style="fill:rgb(4,74,116);fill-rule:nonzero;"></path>
    </g>
    <g transform="matrix(2,0,0,2,1706.9068,959.5622)">
        <path d="M0,-10.581L-13.249,-10.581L-13.249,-6.845C-13.249,-2.887 -10.581,-0.219 -6.687,-0.219L-6.626,-0.219C-2.731,-0.219 0,-2.887 0,-6.845L0,-10.581ZM4.365,-15.417L4.365,-6.845C4.365,0.063 -0.378,4.836 -6.562,4.836L-6.626,4.836C-12.81,4.836 -17.614,0.063 -17.614,-6.845L-17.614,-15.417L4.365,-15.417Z" style="fill:rgb(4,74,116);fill-rule:nonzero;"></path>
    </g>
    <g transform="matrix(2,0,0,2,1690.076,997.921)">
        <path d="M0,5.714L7.128,2.795L0,-0.124L0,5.714ZM12.937,0.627L12.937,5.087L-9.198,14.505L-9.198,9.45L-4.27,7.441L-4.27,-1.853L-9.198,-3.862L-9.198,-8.791L12.937,0.627Z" style="fill:rgb(4,74,116);fill-rule:nonzero;"></path>
    </g>
</svg>